<svg width="24" height="24" viewBox="0 0 24 24" fill="none" xmlns="http://www.w3.org/2000/svg">
<path d="M16 22.75H8C3.38 22.75 2.52 20.6 2.3 18.51L1.55 10.5C1.44 9.45001 1.41 7.90001 2.45 6.74001C3.35 5.74001 4.84 5.26001 7 5.26001H17C19.17 5.26001 20.66 5.75001 21.55 6.74001C22.59 7.90001 22.56 9.45001 22.45 10.51L21.7 18.5C21.48 20.6 20.62 22.75 16 22.75ZM7 6.75001C5.31 6.75001 4.15 7.08001 3.56 7.74001C3.07 8.28001 2.91 9.11001 3.04 10.35L3.79 18.36C3.96 19.94 4.39 21.25 8 21.25H16C19.6 21.25 20.04 19.94 20.21 18.35L20.96 10.36C21.09 9.11001 20.93 8.28001 20.44 7.74001C19.85 7.08001 18.69 6.75001 17 6.75001H7Z" fill="#0F172A"/>
<path d="M8.24707 3.20703C8.25799 3.18247 8.27032 3.15867 8.28223 3.13477C8.26997 3.15876 8.25819 3.18279 8.24707 3.20703ZM15.7178 3.13477C15.7296 3.15856 15.7411 3.18259 15.752 3.20703C15.7409 3.18291 15.73 3.15863 15.7178 3.13477ZM8.4668 2.84473C8.40392 2.9248 8.34991 3.00772 8.30371 3.09277C8.32579 3.05122 8.34862 3.0102 8.37402 2.9707C8.42129 2.89722 8.47933 2.82344 8.54883 2.75C8.52095 2.78064 8.49285 2.81155 8.4668 2.84473ZM15.4512 2.75C15.5207 2.82344 15.5787 2.89722 15.626 2.9707C15.6513 3.01007 15.6733 3.05136 15.6953 3.09277C15.6492 3.00786 15.596 2.92468 15.5332 2.84473C15.5072 2.81155 15.479 2.78064 15.4512 2.75ZM12.7998 2C12.9205 2 13.0365 2.00169 13.1475 2.00586C13.0352 2.00268 12.9192 2 12.7998 2Z" fill="#0F172A" stroke="#0F172A" stroke-width="1.5"/>
<path d="M12 16.75C9.25 16.75 9.25 15.05 9.25 14.03V13C9.25 11.59 9.59 11.25 11 11.25H13C14.41 11.25 14.75 11.59 14.75 13V14C14.75 15.04 14.75 16.75 12 16.75ZM10.75 12.75C10.75 12.83 10.75 12.92 10.75 13V14.03C10.75 15.06 10.75 15.25 12 15.25C13.25 15.25 13.25 15.09 13.25 14.02V13C13.25 12.92 13.25 12.83 13.25 12.75C13.17 12.75 13.08 12.75 13 12.75H11C10.92 12.75 10.83 12.75 10.75 12.75Z" fill="#0F172A"/>
<path d="M14 14.77C13.63 14.77 13.3 14.49 13.26 14.11C13.21 13.7 13.5 13.32 13.91 13.27C16.55 12.94 19.08 11.94 21.21 10.39C21.54 10.14 22.01 10.22 22.26 10.56C22.5 10.89 22.43 11.36 22.09 11.61C19.75 13.31 16.99 14.4 14.09 14.77C14.06 14.77 14.03 14.77 14 14.77Z" fill="#0F172A"/>
<path d="M10 14.7799C9.97001 14.7799 9.94001 14.7799 9.91001 14.7799C7.17001 14.4699 4.50001 13.4699 2.19001 11.8899C1.85001 11.6599 1.76001 11.1899 1.99001 10.8499C2.22001 10.5099 2.69001 10.4199 3.03001 10.6499C5.14001 12.0899 7.57001 12.9999 10.07 13.2899C10.48 13.3399 10.78 13.7099 10.73 14.1199C10.7 14.4999 10.38 14.7799 10 14.7799Z" fill="#0F172A"/>
</svg>
