<svg width="24" height="24" viewBox="0 0 24 24" fill="none" xmlns="http://www.w3.org/2000/svg">
<g clip-path="url(#clip0_2123_1240)">
<path d="M15.4734 7.63255C13.1393 4.1987 10.022 2.37365 8.38945 3.49189C8.20969 3.61848 8.05348 3.77558 7.92792 3.95606C7.92792 3.96925 4.14858 11.6176 4.14858 11.6176L2.03869 13.0471C1.71479 13.2669 1.43738 13.5485 1.22232 13.8756C1.00725 14.2027 0.858737 14.5689 0.785262 14.9535C0.711787 15.338 0.714789 15.7332 0.794097 16.1166C0.873406 16.4999 1.02747 16.8639 1.24748 17.1877L1.34242 17.3275C1.78714 17.9753 2.46932 18.4217 3.24101 18.5698C4.01269 18.7179 4.81166 18.5558 5.46462 18.1187L8.85363 23.1112C9.35209 23.7257 10.3095 24.3376 11.491 23.6176C11.7003 23.4819 11.8789 23.3038 12.0151 23.0948C12.1514 22.8859 12.2424 22.6507 12.2822 22.4044C12.3299 22.1595 12.3286 21.9075 12.2784 21.663C12.2281 21.4186 12.1299 21.1865 11.9895 20.9802L9.00396 16.5758C9.00396 16.5758 16.0615 16.0141 16.0879 16.0035C16.3083 15.9574 16.5172 15.8677 16.7024 15.7398C17.5411 15.1701 17.8418 13.9754 17.5517 12.3745C17.2906 10.9002 16.5495 9.23079 15.4734 7.63255ZM2.10989 16.8079L2.01495 16.6681C1.86315 16.4447 1.75692 16.1935 1.70233 15.9289C1.64775 15.6643 1.64588 15.3915 1.69683 15.1262C1.74779 14.8609 1.85056 14.6083 1.99928 14.3828C2.148 14.1572 2.33974 13.9632 2.56352 13.8119L4.38594 12.5723L6.79121 16.1143L4.9688 17.3539C4.74527 17.5059 4.49398 17.6123 4.2293 17.6671C3.96461 17.722 3.69171 17.7241 3.42621 17.6734C3.1607 17.6227 2.90779 17.5201 2.68193 17.3716C2.45606 17.2231 2.26168 17.0316 2.10989 16.8079ZM11.2299 21.4998C11.374 21.7143 11.4272 21.9772 11.3778 22.2308C11.3283 22.4845 11.1803 22.7081 10.9662 22.8528C10.7513 22.997 10.488 23.0503 10.2339 23.0009C9.97981 22.9514 9.75568 22.8034 9.61055 22.589L6.23209 17.6123L7.59033 16.6892L7.94902 16.6602L11.2299 21.4998ZM7.66418 15.7556L5.04264 11.8945L7.54286 6.7965C7.7855 8.22859 8.49495 9.92969 9.62901 11.5991C10.7631 13.2686 12.0818 14.5556 13.3213 15.3099L7.66418 15.7556ZM15.4444 15.1411C14.1837 15.0594 12.1319 13.6378 10.3939 11.0769C8.65583 8.51606 8.09143 6.09233 8.47913 4.88705C8.54914 4.66082 8.68885 4.46249 8.87831 4.3204C9.06777 4.1783 9.29728 4.09971 9.53407 4.09584C10.7842 4.09584 12.9125 5.52529 14.7007 8.16002C15.7081 9.64222 16.4413 11.193 16.6418 12.5486C17.0347 15.1411 15.4444 15.1411 15.4444 15.1411Z" fill="#0F172A" stroke="#0F172A" stroke-width="0.5"/>
<path d="M12.1767 7.73013C11.8536 7.66669 11.5212 7.6683 11.1988 7.73487C10.8763 7.80144 10.5704 7.93163 10.2989 8.11782C10.2489 8.15246 10.2061 8.19661 10.1731 8.24776C10.1402 8.29891 10.1176 8.35605 10.1067 8.41593C10.0958 8.47581 10.0968 8.53725 10.1096 8.59674C10.1225 8.65623 10.1469 8.71261 10.1815 8.76266C10.2162 8.8127 10.2603 8.85544 10.3115 8.88842C10.3626 8.9214 10.4198 8.94399 10.4797 8.95489C10.5395 8.96579 10.601 8.96478 10.6605 8.95194C10.72 8.93909 10.7763 8.91465 10.8264 8.88002C10.9983 8.7633 11.1916 8.6816 11.3951 8.63957C11.5987 8.59754 11.8085 8.59602 12.0126 8.63508C12.2167 8.67414 12.4112 8.75302 12.5848 8.86723C12.7585 8.98143 12.9079 9.12872 13.0246 9.30068C13.1413 9.47264 13.223 9.6659 13.2651 9.86944C13.3071 10.073 13.3086 10.2828 13.2696 10.4869C13.2305 10.691 13.1516 10.8855 13.0374 11.0591C12.9232 11.2328 12.7759 11.3822 12.604 11.4989C12.5229 11.5549 12.4618 11.6354 12.4298 11.7286C12.3977 11.8217 12.3963 11.9227 12.4258 12.0168C12.4553 12.1108 12.5141 12.1929 12.5936 12.2511C12.6731 12.3093 12.7692 12.3406 12.8677 12.3402C12.9617 12.342 13.0539 12.3143 13.1314 12.2611C13.5416 11.9832 13.8601 11.5899 14.0466 11.1308C14.2331 10.6718 14.2791 10.1677 14.1788 9.68247C14.0785 9.19725 13.8365 8.7527 13.4834 8.40515C13.1303 8.05759 12.6819 7.82267 12.1952 7.73013H12.1767Z" fill="#0F172A" stroke="#0F172A" stroke-width="0.5"/>
<path d="M16.0431 4.4229H16.0879C16.2021 4.42286 16.3122 4.38051 16.3969 4.30403C16.4817 4.22756 16.5351 4.12239 16.5468 4.00884L16.9029 0.548617C16.911 0.487431 16.9067 0.425242 16.8903 0.365728C16.874 0.306214 16.8459 0.250585 16.8076 0.202132C16.7694 0.15368 16.7218 0.113387 16.6678 0.0836385C16.6137 0.0538901 16.5542 0.0352902 16.4928 0.0289392C16.4314 0.0225883 16.3694 0.0286153 16.3103 0.0466638C16.2513 0.0647122 16.1965 0.0944154 16.1492 0.134016C16.1018 0.173617 16.0629 0.22231 16.0347 0.277216C16.0065 0.332121 15.9896 0.392123 15.9851 0.453672L15.6316 3.91653C15.6191 4.03823 15.6554 4.15992 15.7325 4.25488C15.8097 4.34983 15.9214 4.41026 16.0431 4.4229Z" fill="#0F172A" stroke="#0F172A" stroke-width="0.5"/>
<path d="M22.0088 3.71075C21.941 3.6086 21.8356 3.53741 21.7155 3.5127C21.5955 3.48799 21.4705 3.51179 21.3679 3.57889L18.153 5.68878C18.0695 5.7439 18.0062 5.82465 17.9726 5.91888C17.939 6.0131 17.9369 6.11569 17.9666 6.2112C17.9964 6.30671 18.0564 6.38997 18.1375 6.44844C18.2187 6.5069 18.3167 6.53741 18.4167 6.53537C18.51 6.53752 18.6018 6.51181 18.6804 6.46152L21.8954 4.35163C21.9951 4.28146 22.063 4.17467 22.0843 4.05459C22.1055 3.9345 22.0784 3.81089 22.0088 3.71075Z" fill="#0F172A" stroke="#0F172A" stroke-width="0.5"/>
<path d="M22.9925 9.34425L19.2527 8.67172C19.1321 8.65004 19.0077 8.67717 18.9071 8.74716C18.8064 8.81714 18.7377 8.92425 18.716 9.0449C18.6943 9.16556 18.7215 9.2899 18.7915 9.39055C18.8615 9.4912 18.9686 9.55993 19.0892 9.58161L22.8264 10.2541H22.9081C23.0257 10.2576 23.1402 10.216 23.2281 10.1378C23.3161 10.0597 23.3709 9.95093 23.3813 9.83375C23.3918 9.71656 23.3571 9.59982 23.2843 9.50737C23.2115 9.41492 23.1062 9.35374 22.9899 9.33633L22.9925 9.34425Z" fill="#0F172A" stroke="#0F172A" stroke-width="0.5"/>
</g>
<defs>
<clipPath id="clip0_2123_1240">
<rect width="24" height="24" fill="white"/>
</clipPath>
</defs>
</svg>
