<svg width="24" height="24" viewBox="0 0 24 24" fill="none" xmlns="http://www.w3.org/2000/svg">
<g clip-path="url(#clip0_2123_1248)">
<path d="M22.5938 5.67188V4.26562H13.9884C13.7762 3.66731 13.3014 3.19252 12.7031 2.98031V0H11.2969V2.98031C10.6986 3.19252 10.2238 3.66731 10.0116 4.26562H1.40625V5.67188H3.16406L0 13.2656V13.4062C0 15.3448 1.57711 16.9219 3.51562 16.9219H4.92188C6.86039 16.9219 8.4375 15.3448 8.4375 13.4062V13.2656L5.27344 5.67188H10.0116C10.2238 6.27019 10.6986 6.74498 11.2969 6.95719V17.0395C9.90155 17.3239 8.80505 18.4376 8.54437 19.8413C6.91209 20.1444 5.67188 21.5781 5.67188 23.2969V24H18.3282V23.2969C18.3282 21.5781 17.088 20.1444 15.4557 19.8412C15.195 18.4375 14.0985 17.3238 12.7031 17.0395V6.95719C13.3014 6.74498 13.7762 6.27019 13.9884 5.67188H18.7266L15.5625 13.2656V13.4062C15.5625 15.3448 17.1396 16.9219 19.0781 16.9219H20.4844C22.4229 16.9219 24 15.3448 24 13.4062V13.2656L20.8359 5.67188H22.5938ZM4.21875 6.79688L6.67969 12.7031H1.75781L4.21875 6.79688ZM4.92188 15.5156H3.51562C2.59903 15.5156 1.81744 14.9277 1.52719 14.1089H6.91031C6.62006 14.9277 5.83847 15.5156 4.92188 15.5156ZM19.7812 6.79688L22.2422 12.7031H17.3203L19.7812 6.79688ZM20.4844 15.5156H19.0781C18.1615 15.5156 17.3799 14.9277 17.0897 14.1089H22.4728C22.1826 14.9277 21.401 15.5156 20.4844 15.5156ZM16.8014 22.5938H7.19859C7.4888 21.7753 8.27081 21.1875 9.1875 21.1875H14.8125C15.7292 21.1875 16.5112 21.7753 16.8014 22.5938ZM13.9884 19.7812H10.0116C10.3018 18.9629 11.0834 18.375 12 18.375C12.9166 18.375 13.6982 18.9629 13.9884 19.7812ZM12 5.67188C11.6123 5.67188 11.2969 5.35645 11.2969 4.96875C11.2969 4.58105 11.6123 4.26562 12 4.26562C12.3877 4.26562 12.7031 4.58105 12.7031 4.96875C12.7031 5.35645 12.3877 5.67188 12 5.67188Z" fill="#0F172A"/>
</g>
<defs>
<clipPath id="clip0_2123_1248">
<rect width="24" height="24" fill="white"/>
</clipPath>
</defs>
</svg>
