<svg width="24" height="24" viewBox="0 0 24 24" fill="none" xmlns="http://www.w3.org/2000/svg">
<g clip-path="url(#clip0_2123_1224)">
<path d="M9.54169 16.1724L12.8562 6.22864C12.979 5.86025 12.7799 5.46205 12.4115 5.33924C12.0432 5.21647 11.6449 5.41555 11.5221 5.78394L8.20758 15.7277C8.08482 16.0961 8.2839 16.4943 8.65229 16.6171C8.72602 16.6416 8.80102 16.6533 8.87471 16.6533C9.16908 16.6534 9.44344 16.467 9.54169 16.1724Z" fill="#0F172A"/>
<path d="M14.5093 13.0876C15.6724 13.0876 16.6187 12.1414 16.6187 10.9783C16.6187 9.81516 15.6724 8.8689 14.5093 8.8689C13.3462 8.8689 12.4 9.81516 12.4 10.9783C12.4 12.1414 13.3462 13.0876 14.5093 13.0876ZM14.5093 10.2751C14.897 10.2751 15.2125 10.5906 15.2125 10.9783C15.2125 11.366 14.897 11.6814 14.5093 11.6814C14.1216 11.6814 13.8062 11.366 13.8062 10.9783C13.8062 10.5906 14.1216 10.2751 14.5093 10.2751Z" fill="#0F172A"/>
<path d="M6.55438 8.8689C5.39127 8.8689 4.44501 9.81516 4.44501 10.9783C4.44501 12.1414 5.39127 13.0876 6.55438 13.0876C7.71749 13.0876 8.66376 12.1414 8.66376 10.9783C8.66376 9.81516 7.71754 8.8689 6.55438 8.8689ZM6.55438 11.6814C6.16668 11.6814 5.85126 11.366 5.85126 10.9783C5.85126 10.5906 6.16668 10.2751 6.55438 10.2751C6.94209 10.2751 7.25751 10.5906 7.25751 10.9783C7.25751 11.366 6.94213 11.6814 6.55438 11.6814Z" fill="#0F172A"/>
<path d="M23.8596 8.71898L21.4077 5.44978L21.5034 4.78026C21.5347 4.56117 21.461 4.34011 21.3045 4.18364L19.8129 2.69208L21.3045 1.20051C21.579 0.925967 21.579 0.480748 21.3045 0.206154C21.0299 -0.0683926 20.5847 -0.0683926 20.3101 0.206154L18.8186 1.69772L17.327 0.206154C17.1705 0.0496387 16.9495 -0.0237676 16.7304 0.00726366L9.76978 1.00162C9.61917 1.02314 9.47962 1.09294 9.37205 1.20051L0.75417 9.81839C-0.251064 10.8236 -0.251064 12.4592 0.75417 13.4644L8.04619 20.7565C8.19534 20.9056 8.35865 21.0322 8.53148 21.137V21.4221C8.53148 22.8437 9.68803 24.0002 11.1096 24.0002H21.4221C22.8437 24.0002 24.0002 22.8437 24.0002 21.4221V9.14086C24.0002 8.98875 23.9509 8.84067 23.8596 8.71898ZM1.74853 12.4701C1.29159 12.0131 1.29159 11.2697 1.74853 10.8127L10.2007 2.36062L16.5812 1.44914L17.8242 2.69212L16.8298 3.68648L16.3326 3.18928C16.0581 2.91473 15.6128 2.91473 15.3382 3.18928C15.0637 3.46383 15.0637 3.90904 15.3382 4.18364L17.327 6.1724C17.4643 6.3097 17.6443 6.37837 17.8242 6.37837C18.0041 6.37837 18.1841 6.3097 18.3213 6.1724C18.5959 5.89786 18.5959 5.45264 18.3213 5.17804L17.8241 4.68084L18.8185 3.68648L20.0615 4.92947L19.1499 11.31L10.6979 19.7621C10.4765 19.9835 10.1822 20.1053 9.8692 20.1053C9.55617 20.1053 9.26189 19.9834 9.04055 19.7621L1.74853 12.4701ZM22.594 21.4221C22.594 22.0683 22.0683 22.594 21.4221 22.594H11.1096C10.4925 22.594 9.98573 22.1145 9.94125 21.5086C10.5772 21.491 11.2079 21.2408 11.6922 20.7565L20.31 12.1386C20.4176 12.031 20.4874 11.8915 20.5089 11.7409L21.1264 7.41853L22.594 9.37523V21.4221Z" fill="#0F172A"/>
</g>
<defs>
<clipPath id="clip0_2123_1224">
<rect width="24" height="24" fill="white"/>
</clipPath>
</defs>
</svg>
