<svg width="25" height="24" viewBox="0 0 25 24" fill="none" xmlns="http://www.w3.org/2000/svg">
<path d="M18.8033 22.75H14.8033C12.3833 22.75 11.0533 21.42 11.0533 19V5C11.0533 2.58 12.3833 1.25 14.8033 1.25H18.8033C21.2233 1.25 22.5533 2.58 22.5533 5V19C22.5533 21.42 21.2133 22.75 18.8033 22.75ZM14.8033 2.75C13.2233 2.75 12.5533 3.42 12.5533 5V19C12.5533 20.58 13.2233 21.25 14.8033 21.25H18.8033C20.3833 21.25 21.0533 20.58 21.0533 19V5C21.0533 3.42 20.3833 2.75 18.8033 2.75H14.8033Z" fill="#0F172A"/>
<mask id="path-2-inside-1_2126_2961" fill="white">
<path d="M16.8033 6.75H11.8033C11.3933 6.75 11.0533 6.41 11.0533 6C11.0533 5.59 11.3933 5.25 11.8033 5.25H16.8033C17.2133 5.25 17.5533 5.59 17.5533 6C17.5533 6.41 17.2133 6.75 16.8033 6.75Z"/>
</mask>
<path d="M16.8033 6.75H11.8033C11.3933 6.75 11.0533 6.41 11.0533 6C11.0533 5.59 11.3933 5.25 11.8033 5.25H16.8033C17.2133 5.25 17.5533 5.59 17.5533 6C17.5533 6.41 17.2133 6.75 16.8033 6.75Z" fill="#0F172A"/>
<path d="M16.8033 6.75V5.25H11.8033V6.75V8.25H16.8033V6.75ZM11.8033 6.75V5.25C12.2218 5.25 12.5533 5.58157 12.5533 6H11.0533H9.55334C9.55334 7.23843 10.5649 8.25 11.8033 8.25V6.75ZM11.0533 6H12.5533C12.5533 6.41843 12.2218 6.75 11.8033 6.75V5.25V3.75C10.5649 3.75 9.55334 4.76157 9.55334 6H11.0533ZM11.8033 5.25V6.75H16.8033V5.25V3.75H11.8033V5.25ZM16.8033 5.25V6.75C16.3849 6.75 16.0533 6.41843 16.0533 6H17.5533H19.0533C19.0533 4.76157 18.0418 3.75 16.8033 3.75V5.25ZM17.5533 6H16.0533C16.0533 5.58157 16.3849 5.25 16.8033 5.25V6.75V8.25C18.0418 8.25 19.0533 7.23843 19.0533 6H17.5533Z" fill="#0F172A" mask="url(#path-2-inside-1_2126_2961)"/>
<path d="M15.8033 18.75H11.8033C11.3933 18.75 11.0533 18.41 11.0533 18C11.0533 17.59 11.3933 17.25 11.8033 17.25H15.8033C16.2133 17.25 16.5533 17.59 16.5533 18C16.5533 18.41 16.2133 18.75 15.8033 18.75Z" fill="#0F172A"/>
<path d="M16.8034 14.75C16.7934 14.75 16.7934 14.75 16.8034 14.75L11.7934 14.7C11.3834 14.7 11.0434 14.36 11.0534 13.94C11.0534 13.53 11.3934 13.2 11.8034 13.2C11.8034 13.2 11.8034 13.2 11.8134 13.2L16.8134 13.25C17.2234 13.25 17.5634 13.59 17.5534 14.01C17.5434 14.42 17.2134 14.75 16.8034 14.75Z" fill="#0F172A"/>
<path d="M14.8033 10.75H11.8033C11.3933 10.75 11.0533 10.41 11.0533 10C11.0533 9.59 11.3933 9.25 11.8033 9.25H14.8033C15.2133 9.25 15.5533 9.59 15.5533 10C15.5533 10.41 15.2133 10.75 14.8033 10.75Z" fill="#0F172A"/>
<path d="M5.8234 22.72C4.9134 22.72 4.0534 22.16 3.4634 21.18L2.6434 19.82C2.3434 19.32 2.1134 18.5 2.1134 17.92V4.95C2.1134 2.91 3.7734 1.25 5.8134 1.25C7.8534 1.25 9.5134 2.91 9.5134 4.95V17.91C9.5134 18.49 9.2834 19.31 8.9834 19.81L8.1634 21.17C7.5934 22.16 6.7334 22.72 5.8234 22.72ZM5.8234 2.75C4.6134 2.75 3.6234 3.74 3.6234 4.95V17.91C3.6234 18.22 3.7734 18.77 3.9334 19.04L4.7534 20.4C5.0634 20.92 5.4534 21.21 5.8234 21.21C6.1934 21.21 6.5834 20.91 6.8934 20.4L7.7134 19.04C7.8734 18.77 8.0234 18.22 8.0234 17.91V4.95C8.0234 3.74 7.0334 2.75 5.8234 2.75Z" fill="#0F172A"/>
<path d="M8.7734 7.75H2.8634C2.4534 7.75 2.1134 7.41 2.1134 7C2.1134 6.59 2.4534 6.25 2.8634 6.25H8.7734C9.1834 6.25 9.5234 6.59 9.5234 7C9.5234 7.41 9.1834 7.75 8.7734 7.75Z" fill="#0F172A"/>
</svg>
