<svg width="16" height="16" viewBox="0 0 16 16" fill="none" xmlns="http://www.w3.org/2000/svg">
<g clip-path="url(#clip0_2809_91)">
<path d="M4.66667 6.66675V14.6667" stroke="#0F172A" stroke-width="1.5" stroke-linecap="round" stroke-linejoin="round"/>
<path d="M10 3.91992L9.33333 6.66659H13.22C13.427 6.66659 13.6311 6.71478 13.8163 6.80735C14.0014 6.89992 14.1625 7.03432 14.2867 7.19992C14.4109 7.36551 14.4948 7.55775 14.5318 7.7614C14.5688 7.96506 14.558 8.17454 14.5 8.37325L12.9467 13.7066C12.8659 13.9835 12.6975 14.2268 12.4667 14.3999C12.2359 14.573 11.9552 14.6666 11.6667 14.6666H2.66666C2.31304 14.6666 1.9739 14.5261 1.72385 14.2761C1.4738 14.026 1.33333 13.6869 1.33333 13.3333V7.99992C1.33333 7.6463 1.4738 7.30716 1.72385 7.05711C1.9739 6.80706 2.31304 6.66659 2.66666 6.66659H4.50666C4.75472 6.66645 4.99782 6.59713 5.20863 6.4664C5.41944 6.33567 5.58961 6.14873 5.7 5.92659L8 1.33325C8.31438 1.33715 8.62382 1.41203 8.9052 1.55232C9.18658 1.6926 9.43261 1.89466 9.62493 2.14339C9.81725 2.39212 9.95087 2.68109 10.0158 2.98872C10.0808 3.29635 10.0754 3.61468 10 3.91992Z" stroke="#0F172A" stroke-width="1.5" stroke-linecap="round" stroke-linejoin="round"/>
</g>
<defs>
<clipPath id="clip0_2809_91">
<rect width="16" height="16" fill="white"/>
</clipPath>
</defs>
</svg>
