<svg width="84" height="84" viewBox="0 0 84 84" fill="none" xmlns="http://www.w3.org/2000/svg">
<path opacity="0.1" d="M41.9995 76.9999C61.3295 76.9999 76.9995 61.3299 76.9995 41.9999C76.9995 22.67 61.3295 6.99994 41.9995 6.99994C22.6695 6.99994 6.99951 22.67 6.99951 41.9999C6.99951 61.3299 22.6695 76.9999 41.9995 76.9999Z" fill="#1D9E34"/>
<path d="M37.0298 54.53C36.3298 54.53 35.6648 54.25 35.1748 53.76L25.2698 43.855C24.2548 42.84 24.2548 41.16 25.2698 40.145C26.2848 39.13 27.9648 39.13 28.9798 40.145L37.0298 48.195L55.0198 30.205C56.0348 29.19 57.7148 29.19 58.7298 30.205C59.7448 31.22 59.7448 32.9 58.7298 33.915L38.8848 53.76C38.3948 54.25 37.7298 54.53 37.0298 54.53Z" fill="#1D9E34"/>
</svg>
