<svg width="25" height="24" viewBox="0 0 25 24" fill="none" xmlns="http://www.w3.org/2000/svg">
<path d="M11.4566 15.17C11.2566 15.17 11.0666 15.09 10.9266 14.95L8.50662 12.53C8.21662 12.24 8.21662 11.76 8.50662 11.47C8.79662 11.18 9.27662 11.18 9.56662 11.47L11.4566 13.36L15.7566 9.06003C16.0466 8.77003 16.5266 8.77003 16.8166 9.06003C17.1066 9.35003 17.1066 9.83003 16.8166 10.12L11.9866 14.95C11.8466 15.09 11.6566 15.17 11.4566 15.17Z" fill="#0F172A"/>
<path d="M4.56128 14.9814C4.52971 14.9338 4.4949 14.888 4.45776 14.8447H4.45874L3.10815 13.2549C3.0323 13.165 2.96698 13.0674 2.91089 12.9648C2.966 13.0633 3.03046 13.1583 3.1062 13.2471V13.2461L4.45288 14.832V14.833C4.48532 14.8716 4.51722 14.9137 4.54761 14.959L4.56128 14.9814ZM4.56128 14.9814C4.59168 15.0283 4.62057 15.0781 4.64819 15.1299C4.62169 15.0801 4.5933 15.0298 4.56128 14.9814ZM4.92651 17.9873C5.02563 18.9591 5.84891 19.7196 6.84644 19.7197H8.5769C8.92781 19.7198 9.3969 19.8781 9.71167 20.0928L9.83667 20.1875L9.83765 20.1885L11.4177 21.5488L11.4197 21.5508C11.7854 21.8629 12.2515 21.9922 12.6765 21.9922C12.9229 21.9922 13.1821 21.9461 13.4285 21.8486C13.1912 21.9471 12.9324 22 12.6667 22C12.2578 22 11.8601 21.8807 11.5378 21.6543L11.405 21.5508L9.82886 20.1943C9.64333 20.0326 9.39913 19.9244 9.22339 19.8613C9.04374 19.7969 8.79669 19.7305 8.56616 19.7305H6.84644C5.78074 19.7304 4.91675 18.8655 4.91675 17.7998L4.92651 17.9873ZM16.6169 19.7295C16.6377 19.727 16.6583 19.7272 16.6785 19.7256C16.658 19.727 16.6374 19.7272 16.6169 19.7295ZM4.76636 15.3906C4.85821 15.6266 4.91675 15.8758 4.91675 16.0801V16.0898C4.91672 15.8576 4.84906 15.6119 4.78394 15.4336C4.77878 15.4195 4.77208 15.4055 4.76636 15.3906ZM4.66479 15.1621C4.68355 15.1987 4.7014 15.2362 4.71851 15.2744C4.70222 15.2377 4.68418 15.2001 4.66479 15.1621ZM6.27319 4.35645C5.78993 4.50708 5.3881 4.84361 5.15015 5.28125L5.06812 5.44922C5.26341 4.98725 5.63355 4.61729 6.09546 4.42188L6.27319 4.35645ZM16.658 4.2627C16.6444 4.26149 16.6307 4.26135 16.6169 4.25977C16.6306 4.26126 16.6443 4.26157 16.658 4.2627ZM8.91772 4.22754C8.88582 4.23446 8.85417 4.23987 8.823 4.24512C8.85493 4.23961 8.88668 4.23448 8.91772 4.22754ZM9.84351 3.80566C9.63149 3.98391 9.29221 4.13613 8.97339 4.21387C9.07171 4.18917 9.16308 4.16072 9.23901 4.13281C9.41448 4.06833 9.64446 3.96403 9.81909 3.82227L9.82788 3.81543L9.83569 3.80859L10.6492 3.1084L9.84351 3.80566ZM8.7439 4.25781C8.6857 4.26495 8.62978 4.26952 8.5769 4.26953C8.63227 4.26952 8.68822 4.26475 8.7439 4.25781Z" fill="#0F172A" stroke="#0F172A" stroke-width="1.5"/>
</svg>
